<?xml version="1.0" standalone="no"?><!DOCTYPE svg PUBLIC "-//W3C//DTD SVG 1.1//EN" "http://www.w3.org/Graphics/SVG/1.1/DTD/svg11.dtd"><svg t="1700191485712" class="icon" viewBox="0 0 1024 1024" version="1.1" xmlns="http://www.w3.org/2000/svg" p-id="1919" xmlns:xlink="http://www.w3.org/1999/xlink" width="200" height="200"><path d="M858.688 1024H165.312A165.504 165.504 0 0 1 0 858.688V165.312A165.504 165.504 0 0 1 165.312 0h421.12a32 32 0 0 1 0 64h-421.12C109.44 64 64 109.44 64 165.312v693.312C64 914.56 109.44 960 165.312 960h693.312C914.56 960 960 914.56 960 858.688V413.376a32 32 0 0 1 64 0v445.312A165.504 165.504 0 0 1 858.688 1024z" p-id="1920"></path><path d="M599.488 456.512a32 32 0 0 1-22.656-54.592L969.344 9.408a32 32 0 0 1 45.248 45.248L622.144 447.104a32 32 0 0 1-22.656 9.408zM576 597.376H192a32 32 0 0 1 0-64h384a32 32 0 0 1 0 64zM832 803.968H192a32 32 0 0 1 0-64h640a32 32 0 0 1 0 64z" p-id="1921"></path></svg>